<svg width="159" height="140" viewBox="0 0 159 140" fill="none" xmlns="http://www.w3.org/2000/svg">
<path fill-rule="evenodd" clip-rule="evenodd" d="M51.4354 139.111C46.8658 137.374 39.7344 133.558 34.5739 130.09C28.3999 125.939 19.917 118.024 15.6926 112.471C8.10477 102.497 4.13531 92.3533 1.85437 77.105C0.320357 66.8514 0.21127 64.2482 0.0697331 34.487C-0.0807661 2.83511 -0.217974 4.82185 2.29009 2.31409C4.71009 -0.106217 3.27836 0.00257845 32.7553 0.00257587C61.2251 0.00257338 60.2285 -0.0555167 62.5805 1.73869C63.1812 2.19667 64.0481 3.21028 64.5073 3.99088L65.3416 5.41055L65.4254 32.3779L65.5095 59.3452L64.8416 60.8974C64.0576 62.7197 61.9059 64.7507 60.2807 65.2022C59.6144 65.387 54.0624 65.5136 46.5682 65.5146L33.9753 65.5164L33.9753 67.4596C33.9753 71.8839 35.2368 79.3924 36.8159 84.3671C38.9151 90.9809 42.1182 96.3135 46.758 100.919C50.5432 104.676 54.9265 107.66 61.0882 110.675C65.5938 112.88 66.2697 113.427 67.5076 115.871C67.8355 116.519 68.054 117.673 68.0648 118.813C68.0803 120.464 67.8744 121.135 66.3525 124.392C60.5607 136.788 60.0869 137.574 57.6676 138.809C55.8934 139.714 53.3458 139.837 51.4354 139.111ZM142.819 139.338C141.106 139.022 133.053 135.081 128.692 132.425C115.463 124.368 105.136 113.573 99.093 101.485C94.6743 92.646 92.4854 83.7169 90.944 68.239C90.5342 64.1258 90.4168 57.9758 90.3061 34.7985C90.1532 2.79926 90.0147 4.82555 92.5262 2.31408C94.9462 -0.105904 93.5163 0.00257056 122.975 0.00256798C151.689 0.00256547 150.683 -0.0598734 153.018 1.86475C153.63 2.36971 154.492 3.50569 154.932 4.38919L155.732 5.99553L155.725 32.7428C155.719 58.9836 155.707 59.5166 155.089 60.881C154.366 62.4796 153.262 63.7247 151.715 64.6882C150.658 65.3465 150.326 65.3656 137.349 65.5164L124.066 65.6709L124.16 68.1432C124.404 74.5286 125.945 82.1279 128.086 87.4963C130.287 93.0162 132.924 97.0425 136.924 100.994C140.565 104.591 144.282 107.154 150.118 110.089C155.711 112.904 157.275 114.201 157.908 116.552C158.657 119.335 158.263 120.737 154.574 128.404C152.516 132.682 150.689 136.051 149.985 136.868C148.195 138.944 145.575 139.847 142.819 139.338Z" fill="white" fill-opacity="0.16"/>
</svg>
